<?xml version="1.0" encoding="utf-8"?>
<!-- Generator: Adobe Illustrator 18.1.1, SVG Export Plug-In . SVG Version: 6.00 Build 0)  -->
<!DOCTYPE svg PUBLIC "-//W3C//DTD SVG 1.1//EN" "http://www.w3.org/Graphics/SVG/1.1/DTD/svg11.dtd">
<svg version="1.1" id="Layer_1" xmlns="http://www.w3.org/2000/svg" xmlns:xlink="http://www.w3.org/1999/xlink" x="0px" y="0px"
	 viewBox="0 0 640 480" enable-background="new 0 0 640 480" xml:space="preserve">
<symbol  id="green_avatar" viewBox="-25 -24.6 50 49.2">
	<path opacity="0.2" fill="#05AF05" d="M-2-7.3c-5.1,0.9-9,5.4-9,10.8c0,6.1,4.9,11,11,11c6.1,0,11-4.9,11-11c0-5.4-3.9-9.8-9-10.8
		c5.7-0.9,10.7-5.3,13.6-11.8c5.5,4.5,9,11.4,9,19.1c0,13.6-11,24.6-24.6,24.6S-24.6,13.6-24.6,0c0-7.6,3.5-14.5,9-19
		C-12.7-12.6-7.7-8.1-2-7.3z"/>
	<path opacity="0.2" fill="#036622" d="M15.6-19.1c-3,6.5-7.9,11-13.6,11.8c-0.6-0.1-1.3-0.2-2-0.2s-1.3,0.1-2,0.2
		C-7.7-8.1-12.7-12.6-15.6-19c4.3-3.5,9.7-5.6,15.6-5.6C5.9-24.6,11.3-22.5,15.6-19.1z"/>
	<path opacity="0.45" fill="#036622" d="M15.6-19.1c-3,6.5-7.9,11-13.6,11.8c-0.6-0.1-1.3-0.2-2-0.2s-1.3,0.1-2,0.2
		C-7.7-8.1-12.7-12.6-15.6-19c4.3-3.5,9.7-5.6,15.6-5.6C5.9-24.6,11.3-22.5,15.6-19.1z"/>
	<path opacity="0.2" fill="#036622" d="M10.9,3.5c0,6.1-4.9,11-11,11c-6.1,0-11-4.9-11-11c0-5.4,3.9-9.8,9-10.8
		c0.7,0.1,1.3,0.1,2,0.1s1.3-0.1,2-0.1C7-6.3,10.9-1.8,10.9,3.5z"/>
	<path opacity="0.45" fill="#036622" d="M10.9,3.5c0,6.1-4.9,11-11,11c-6.1,0-11-4.9-11-11c0-5.4,3.9-9.8,9-10.8
		c0.7,0.1,1.3,0.1,2,0.1s1.3-0.1,2-0.1C7-6.3,10.9-1.8,10.9,3.5z"/>
	<path opacity="0.2" fill="#036622" d="M-2-7.3c0.6-0.1,1.3-0.2,2-0.2s1.3,0.1,2,0.2c-0.7,0.1-1.3,0.1-2,0.1S-1.4-7.2-2-7.3z"/>
	<path opacity="0.65" fill="#036622" d="M-2-7.3c0.6-0.1,1.3-0.2,2-0.2s1.3,0.1,2,0.2c-0.7,0.1-1.3,0.1-2,0.1S-1.4-7.2-2-7.3z"/>
	<path opacity="0.65" fill="#036622" d="M-2-7.3c0.6-0.1,1.3-0.2,2-0.2s1.3,0.1,2,0.2c-0.7,0.1-1.3,0.1-2,0.1S-1.4-7.2-2-7.3z"/>
	<polygon display="none" fill="none" points="-25,24 25,24 25,-24 -25,-24 	"/>
</symbol>
<use xlink:href="#green_avatar"  width="50" height="49.2" x="-25" y="-24.6" transform="matrix(2.1908 0 0 -2.1908 326.7688 235.3027)" overflow="visible"/>
</svg>
