<?xml version="1.0" encoding="utf-8"?>
<!-- Generator: Adobe Illustrator 18.1.1, SVG Export Plug-In . SVG Version: 6.00 Build 0)  -->
<!DOCTYPE svg PUBLIC "-//W3C//DTD SVG 1.1//EN" "http://www.w3.org/Graphics/SVG/1.1/DTD/svg11.dtd">
<svg version="1.1" id="Layer_1" xmlns="http://www.w3.org/2000/svg" xmlns:xlink="http://www.w3.org/1999/xlink" x="0px" y="0px"
	 viewBox="0 0 640 480" enable-background="new 0 0 640 480" xml:space="preserve">
<symbol  id="New_Symbol_9" viewBox="-18.3 -13.8 36.6 27.6">
	<g id="new2_2_2_">
		
			<path fill="none" stroke="#6CAD6F" stroke-width="0.7905" stroke-linecap="round" stroke-linejoin="round" stroke-miterlimit="10" d="
			M3.7-10.1c-4.4-4.4-11.5-4.4-15.9,0"/>
		
			<path fill="none" stroke="#6CAD6F" stroke-width="0.7905" stroke-linecap="round" stroke-linejoin="round" stroke-miterlimit="10" d="
			M-12.3,10.1c4.4,4.4,11.5,4.4,15.9,0"/>
		
			<path fill="none" stroke="#6CAD6F" stroke-width="0.7905" stroke-linecap="round" stroke-linejoin="round" stroke-miterlimit="10" d="
			M-9.7-7.5c3-3,7.9-3,10.9,0"/>
		
			<path fill="none" stroke="#6CAD6F" stroke-width="0.7905" stroke-linecap="round" stroke-linejoin="round" stroke-miterlimit="10" d="
			M1.1,7.5c-3,3-7.9,3-10.9,0"/>
		
			<path fill="none" stroke="#1B1464" stroke-width="2.6163" stroke-linecap="round" stroke-linejoin="round" stroke-miterlimit="10" d="
			M0.6-4.9"/>
		
			<path fill="none" stroke="#6CAD6F" stroke-width="0.7905" stroke-linecap="round" stroke-linejoin="round" stroke-miterlimit="10" d="
			M-6.9,4.5C-5.5,6-3.1,6-1.7,4.5"/>
		
			<path fill="none" stroke="#6CAD6F" stroke-width="0.7905" stroke-linecap="round" stroke-linejoin="round" stroke-miterlimit="10" d="
			M-1.7-4.5C-3.1-6-5.5-6-6.9-4.5"/>
		<path fill="#049372" stroke="#049372" stroke-width="0.527" stroke-miterlimit="10" d="M-16.2,7.8h-0.9c-0.3,0-0.5,0.1-0.7,0.3
			C-17.9,8.3-18,8.5-18,8.8v0.9c0,0.3,0.1,0.5,0.3,0.7c0.2,0.2,0.4,0.3,0.7,0.3h0.9c0.3,0,0.5-0.1,0.7-0.3s0.3-0.4,0.3-0.7V8.8
			c0-0.3-0.1-0.5-0.3-0.7C-15.7,7.9-15.9,7.8-16.2,7.8z"/>
		
			<path fill="#049372" stroke="#049372" stroke-width="0.5" stroke-linecap="round" stroke-linejoin="round" stroke-miterlimit="10" d="
			M6.8-9.6V9.6h1.6v-12l6.8,6.6h2.2l-5.2-5L18-9.6h-1.8l-5.2,7.7L8.4-4.4v-5.2H6.8z"/>
		
			<path fill="#049372" stroke="#049372" stroke-width="0.5" stroke-linecap="round" stroke-linejoin="round" stroke-miterlimit="10" d="
			M-15.7-3.6v-6h-2v6l0.4,8.4h1.2L-15.7-3.6z"/>
	</g>
</symbol>
<use xlink:href="#New_Symbol_9"  width="36.6" height="27.6" x="-18.3" y="-13.8" transform="matrix(16.3755 0 0 -16.3755 324.5422 238.1336)" overflow="visible"/>
</svg>
