<?xml version="1.0" encoding="utf-8"?>
<!-- Generator: Adobe Illustrator 18.1.1, SVG Export Plug-In . SVG Version: 6.00 Build 0)  -->
<!DOCTYPE svg PUBLIC "-//W3C//DTD SVG 1.1//EN" "http://www.w3.org/Graphics/SVG/1.1/DTD/svg11.dtd">
<svg version="1.1" id="Layer_1" xmlns="http://www.w3.org/2000/svg" xmlns:xlink="http://www.w3.org/1999/xlink" x="0px" y="0px"
	 viewBox="0 0 640 480" enable-background="new 0 0 640 480" xml:space="preserve">
<symbol  id="new2" viewBox="-28.7 -28.7 57.3 57.3">
	<path fill="#049372" d="M0-28.7L0-28.7c-15.8,0-28.7,12.9-28.7,28.7v0c0,15.8,12.9,28.7,28.7,28.7h0c15.8,0,28.7-12.9,28.7-28.7v0
		C28.7-15.8,15.8-28.7,0-28.7z"/>
	
		<path fill="none" stroke="#6CAD6F" stroke-width="0.75" stroke-linecap="round" stroke-linejoin="round" stroke-miterlimit="10" d="
		M5.3-9.5c-4.2-4.2-11-4.2-15.1,0"/>
	
		<path fill="none" stroke="#6CAD6F" stroke-width="0.75" stroke-linecap="round" stroke-linejoin="round" stroke-miterlimit="10" d="
		M-9.8,9.7c4.2,4.2,11,4.2,15.1,0"/>
	
		<path fill="none" stroke="#6CAD6F" stroke-width="0.75" stroke-linecap="round" stroke-linejoin="round" stroke-miterlimit="10" d="
		M-7.4-7C-4.6-9.9,0-9.9,2.9-7"/>
	
		<path fill="none" stroke="#6CAD6F" stroke-width="0.75" stroke-linecap="round" stroke-linejoin="round" stroke-miterlimit="10" d="
		M2.9,7.2C0,10-4.6,10-7.4,7.2"/>
	
		<path fill="none" stroke="#1B1464" stroke-width="2.4822" stroke-linecap="round" stroke-linejoin="round" stroke-miterlimit="10" d="
		M2.4-4.6"/>
	
		<path fill="none" stroke="#6CAD6F" stroke-width="0.75" stroke-linecap="round" stroke-linejoin="round" stroke-miterlimit="10" d="
		M-4.7,4.4c1.4,1.4,3.6,1.4,5,0"/>
	
		<path fill="none" stroke="#6CAD6F" stroke-width="0.75" stroke-linecap="round" stroke-linejoin="round" stroke-miterlimit="10" d="
		M0.2-4.2c-1.4-1.4-3.6-1.4-5,0"/>
	<path fill="#FFFFFF" stroke="#FFFFFF" stroke-width="0.5" stroke-miterlimit="10" d="M-13.5,7.5h-0.8c-0.2,0-0.5,0.1-0.6,0.3
		c-0.2,0.2-0.3,0.4-0.3,0.7v0.8c0,0.3,0.1,0.5,0.3,0.7c0.2,0.2,0.4,0.3,0.6,0.3h0.9c0.2,0,0.5-0.1,0.6-0.3c0.2-0.2,0.3-0.4,0.3-0.7
		V8.5c0-0.3-0.1-0.5-0.3-0.7C-13.1,7.6-13.3,7.5-13.5,7.5z"/>
	
		<path fill="#FFFFFF" stroke="#FFFFFF" stroke-width="0.5" stroke-linecap="round" stroke-linejoin="round" stroke-miterlimit="10" d="
		M8.3-9.1V9.2h1.5V-2.2l6.5,6.2h2.1l-4.9-4.7l5.5-8.4h-1.7l-4.9,7.3L9.8-4.1v-5H8.3z"/>
	
		<path fill="#FFFFFF" stroke="#FFFFFF" stroke-width="0.5" stroke-linecap="round" stroke-linejoin="round" stroke-miterlimit="10" d="
		M-13-3.4v-5.7h-1.9v5.7l0.4,8h1.1L-13-3.4z"/>
</symbol>
<use xlink:href="#new2"  width="57.3" height="57.3" id="XMLID_9_" x="-28.7" y="-28.7" transform="matrix(5.7645 0 0 -5.7645 320.0009 240.4832)" overflow="visible"/>
</svg>
